<svg
   
   xmlns="http://www.w3.org/2000/svg"
   id="McatMenuSvgIcon"
   viewBox="0 0 153.88342 156.18758"
   style="fill:#00b0f0;">
    <g
     transform="translate(95.462542,-129.63956)"
     >
    <g
       transform="matrix(3.6985322,0,0,3.6985322,-97.470893,129.34375)"
       >
      <path
         class="mcat-vertical-menu-icon"
         d="M 7.4581652,31.752188 2.3394245,36.531013 C 0.71982291,38.030644 0.07998032,39.930177 0.89977864,40.80996 1.719577,41.669749 3.69909,41.149877 5.3186915,39.650245 l 3.3991638,-3.179217 z"
          />
      <path
         class="mcat-vertical-menu-icon"
         d="m 19.435219,38.710477 c 0,-1.979513 1.659591,-3.599115 3.679095,-3.599115 2.039498,0 3.679094,1.619602 3.679094,3.599115 0,1.999508 -1.639596,3.599114 -3.679094,3.599114 -2.019504,0 -3.679095,-1.599606 -3.679095,-3.599114 z"
          />
      <path
          class="mcat-vertical-menu-icon"
         d="M 29.71269,38.270585 19.935096,18.175529 c 0.439891,-0.399902 0.699827,-0.959764 0.699827,-1.579612 0,-1.17971 -0.959763,-2.159469 -2.139473,-2.159469 H 15.996065 L 10.637383,9.0777667 C 10.097516,8.1180028 8.8578208,7.4381701 7.4381701,7.4381701 c -1.9595179,0 -3.5191342,1.239695 -3.5191342,2.7993109 V 24.413994 H 6.418421 l 3.1392277,11.757107 0.03999,-0.02 1.1197243,4.178972 c 0.299927,1.13972 1.479636,1.819553 2.639351,1.519626 1.159715,-0.319921 1.839547,-1.479636 1.539621,-2.63935 L 13.776611,35.051377 10.917314,24.413994 h 0.03999 v -8.877816 l 3.199213,3.199213 h 4.338933 c 0.01999,0 0.03999,0 0.05998,0 l 9.817585,20.175036 v 0 l 0.639842,1.359666 11.537162,-5.598623 -0.639843,-1.33967 z"
         />
      <path
        class="mcat-vertical-menu-icon"
         d="m 35.751205,34.171593 -4.278948,-8.81783 -0.779808,0.379906 -1.439646,-2.939277 -4.858804,2.339425 5.718593,11.737112 z"
         />
      <path
          class="mcat-vertical-menu-icon"
         d="m 31.992129,25.113822 4.278948,8.877816 5.878554,-2.859297 -5.698599,-11.857083 -4.858804,2.379415 1.439646,2.959272 z"
          />
      <path
          class="mcat-vertical-menu-icon"
         d="M 16.395966,2.4194048 H 13.196753 C 12.716871,1.0597393 11.417191,0.07998032 9.87757,0.07998032 c -1.959518,0 -3.5591244,1.57961138 -3.5591244,3.51913428 0,1.9395228 1.5996064,3.5191342 3.5591244,3.5191342 1.539621,0 2.839301,-0.9597639 3.339178,-2.3394245 1.859543,-0.3199213 3.179218,-1.2596901 3.179218,-2.3594195 z"
         />
    </g>
  </g>
</svg>
